<svg preserveAspectRatio="none" overflow="visible" style="display: block;" width="1392" height="321.007" viewBox="0 0 1392 321.007" fill="none" xmlns="http://www.w3.org/2000/svg">
<g id="Logo / full (CHALDEA silhouette, outlined)">
<path d="M465.459 321.006V297.66C465.459 255.346 485.887 218.868 516.528 218.868C544.252 218.868 561.761 252.428 561.761 296.201V321.006H465.459Z" fill="#F2EEE6"/>
<path d="M1180.43 321.006V304.956C1180.43 274.315 1195.02 253.887 1215.45 253.887C1238.79 253.887 1256.3 274.315 1256.3 304.956V321.006H1180.43Z" fill="#F2EEE6"/>
<path d="M142.994 5.83683C154.667 -2.91789 166.34 -0.000349402 180.931 2.91789L335.598 26.2639C351.648 29.1821 358.943 37.9372 358.943 53.9871V122.567C358.943 157.585 344.352 178.013 318.088 178.013C287.447 178.013 274.314 160.503 272.855 129.862L271.396 77.3331L250.969 75.8747V151.748C250.969 189.685 262.642 210.114 291.824 210.114H379.371C412.931 210.114 431.9 194.063 431.9 157.585V75.8747C431.9 49.6106 446.491 39.3964 469.837 42.3147L602.617 55.4466C615.749 56.9057 621.585 65.6605 621.585 78.7925V202.817C621.585 255.346 646.39 278.692 696.001 278.692H755.824V245.132H722.264C700.378 245.132 688.704 232 688.704 211.572V70.0379L919.246 93.3839C938.214 96.3023 945.51 106.515 955.724 118.188C964.479 128.402 974.692 132.78 996.579 132.78H1216.91C1234.42 132.78 1244.63 141.535 1256.3 157.585L1392 321.007H1304.69L1206.69 159.044L1135.92 321.007H1088.5C1068.08 321.007 1070.99 297.661 1047.65 297.661H938.214C916.327 297.661 907.572 321.007 876.931 321.007H624.33L528.201 74.4152L442.114 237.837C425.301 266.29 414.22 291.303 410.903 321.007H361.862V271.396C361.862 240.755 345.811 221.786 316.629 221.786C293.284 221.786 271.396 237.836 271.396 271.396V321.007H121.107C52.5286 321.007 0.000145058 283.069 0 223.246C0 172.176 27.7234 121.107 70.0379 77.3331L142.994 5.83683ZM198.44 91.9244C189.685 100.679 179.472 105.056 166.34 105.056H110.893C68.5786 105.056 39.3957 137.158 39.3957 182.39C39.3958 227.623 64.2013 253.887 109.434 253.887H164.88C180.93 253.887 191.145 264.1 201.359 275.773L218.868 291.824V72.9558L198.44 91.9244ZM774.793 275.773H820.026C869.635 275.773 898.818 240.755 898.818 194.063C898.818 147.371 869.635 116.73 820.026 116.73H774.793V275.773ZM1008.25 233.46C990.742 233.46 979.07 243.673 979.07 253.887C979.07 264.1 987.824 269.937 1008.25 269.938H1095.8L1113.31 233.46H1008.25ZM1034.52 151.748C1002.42 151.748 979.07 167.799 979.07 185.308C979.07 195.522 986.365 202.817 1008.25 202.817H1107.47L1138.11 151.748H1034.52Z" fill-rule="evenodd" clip-rule="evenodd" fill="#F2EEE6"/>
</g>
</svg>
