<svg preserveAspectRatio="none" overflow="visible" style="display: block;" width="180" height="240" viewBox="0 0 180 240" fill="none" xmlns="http://www.w3.org/2000/svg">
<g id="Astra / Modular / 3">
<path id="glyph" d="M0 12C0 5.37258 5.37258 0 12 0H138C144.627 0 150 5.37258 150 12V18C150 24.6274 155.373 30 162 30H168C174.627 30 180 35.3726 180 42V198C180 204.627 174.627 210 168 210H162C155.373 210 150 215.373 150 222V228C150 234.627 144.627 240 138 240H12C5.37258 240 0 234.627 0 228V192C0 185.373 5.37258 180 12 180H108C114.627 180 120 174.627 120 168V162C120 155.373 114.627 150 108 150H42C35.3726 150 30 144.627 30 138V102C30 95.3726 35.3726 90 42 90H108C114.627 90 120 84.6274 120 78V72C120 65.3726 114.627 60 108 60H12C5.37259 60 0 54.6274 0 48V12Z" fill="#F3EFE7"/>
</g>
</svg>
